HIERARCHY
ROOT root
{
	OFFSET	0	13.1	24.9
	CHANNELS 6  Xposition Yposition Zposition Xrotation Yrotation Zrotation
	JOINT spine_1
	{
		OFFSET	0	9.99999	0
		CHANNELS 3  Xrotation Yrotation Zrotation
		JOINT spine_2
		{
			OFFSET	0	112	-10
			CHANNELS 3  Xrotation Yrotation Zrotation
			JOINT spine_3
			{
				OFFSET	0	206.5	19.3
				CHANNELS 3  Xrotation Yrotation Zrotation
				JOINT spine_4
				{
					OFFSET	0	110.4	14.6
					CHANNELS 3  Xrotation Yrotation Zrotation
					JOINT neck_1
					{
						OFFSET	0	71.8	-50.3
						CHANNELS 3  Xrotation Yrotation Zrotation
						JOINT neck_2
						{
							OFFSET	0	86.2	-25.8
							CHANNELS 3  Xrotation Yrotation Zrotation
							JOINT head_ee
							{
								OFFSET	0	179.8	-8.7
								CHANNELS 3  Xrotation Yrotation Zrotation
								End Site
								{
									OFFSET	1	0	0
								}
							}
						}
					}
					JOINT left_clavicle
					{
						OFFSET	-43.2	22.4	-70.8
						CHANNELS 3  Xrotation Yrotation Zrotation
						JOINT left_shoulder
						{
							OFFSET	-93.9	-5.79999	48.7
							CHANNELS 3  Xrotation Yrotation Zrotation
							JOINT left_elbow
							{
								OFFSET	-291.4	-30.8	15.2
								CHANNELS 3  Xrotation Yrotation Zrotation
								JOINT left_lowarm_twist
								{
									OFFSET	-110.7	-3.89999	13.6
									CHANNELS 3  Xrotation Yrotation Zrotation
									JOINT left_hand
									{
										OFFSET	-110.7	-3.89999	13.6
										CHANNELS 3  Xrotation Yrotation Zrotation
										JOINT left_ee
										{
											OFFSET	-80.8	-5.10001	12.1
											CHANNELS 3  Xrotation Yrotation Zrotation
											End Site
											{
												OFFSET	1	0	0
											}
										}
									}
								}
							}
						}
					}
					JOINT right_clavicle
					{
						OFFSET	43.2	22.4	-70.8
						CHANNELS 3  Xrotation Yrotation Zrotation
						JOINT right_shoulder
						{
							OFFSET	93.9	-5.79999	48.7
							CHANNELS 3  Xrotation Yrotation Zrotation
							JOINT right_elbow
							{
								OFFSET	291.4	-30.8	15.2
								CHANNELS 3  Xrotation Yrotation Zrotation
								JOINT right_lowarm_twist
								{
									OFFSET	110.7	-3.89999	13.6
									CHANNELS 3  Xrotation Yrotation Zrotation
									JOINT right_hand
									{
										OFFSET	110.7	-3.89999	13.6
										CHANNELS 3  Xrotation Yrotation Zrotation
										JOINT right_ee
										{
											OFFSET	80.8	-5.10001	12.1
											CHANNELS 3  Xrotation Yrotation Zrotation
											End Site
											{
												OFFSET	1	0	0
											}
										}
									}
								}
							}
						}
					}
				}
			}
		}
	}
	JOINT left_hip
	{
		OFFSET	-82.8	-127.5	0.300001
		CHANNELS 3  Xrotation Yrotation Zrotation
		JOINT left_knee
		{
			OFFSET	-28.2	-396.7	2.2
			CHANNELS 3  Xrotation Yrotation Zrotation
			JOINT left_ankle
			{
				OFFSET	-11.7	-411.3	35.4
				CHANNELS 3  Xrotation Yrotation Zrotation
				JOINT left_toes
				{
					OFFSET	0	-60	-88.6
					CHANNELS 3  Xrotation Yrotation Zrotation
					JOINT left_foot_ee
					{
						OFFSET	-22.5	-16.5	-42.2
						CHANNELS 3  Xrotation Yrotation Zrotation
						End Site
						{
							OFFSET	1	0	0
						}
					}
				}
			}
		}
	}
	JOINT right_hip
	{
		OFFSET	82.8	-127.5	0.300001
		CHANNELS 3  Xrotation Yrotation Zrotation
		JOINT right_knee
		{
			OFFSET	28.2	-396.7	2.2
			CHANNELS 3  Xrotation Yrotation Zrotation
			JOINT right_ankle
			{
				OFFSET	11.7	-411.3	35.4
				CHANNELS 3  Xrotation Yrotation Zrotation
				JOINT right_toes
				{
					OFFSET	0	-60	-88.6
					CHANNELS 3  Xrotation Yrotation Zrotation
					JOINT right_foot_ee
					{
						OFFSET	22.5	-16.5	-42.2
						CHANNELS 3  Xrotation Yrotation Zrotation
						End Site
						{
							OFFSET	1	0	0
						}
					}
				}
			}
		}
	}
}
MOTION
Frames: 15
Frame Time: 0.02
2851.5 728.967 -612.8 159.425 -76.6256 157.973 -0.970502 0.131028 0.911709 -0.970043 0.0727509 0.918198 -0.968516 -0.137281 0.910789 -0.969674 0.00827791 0.921038 -1.8865 4.54399 -0.0781357 -1.84989 8.2626 0.507548 -0.0 0.0 -0.0 -2.3473 15.8441 -1.85283 -14.3895 -21.4191 75.9619 0.210785 -5.96118 0.0109752 -31.2409 -2.07139 3.36329 -0.711755 7.60779 -1.45166 -0.0 0.0 -0.0 3.35456 16.5051 -5.21225 18.0202 11.072 -79.4893 1.74136 40.7781 -0.647272 9.73994 -0.240007 1.21954 0.639324 -12.156 -9.08716 0.0 0.0 0.0 12.3854 13.7004 -9.78346 -40.2114 -0.480269 6.02784 25.0927 26.3037 -3.5472 -0.503533 0.0 0.0 -0.0 0.0 -0.0 9.63362 25.34 -7.90973 -16.2866 -0.32137 -2.47029 38.5375 18.648 5.16427 24.8951 -0.0 -0.0 0.0 0.0 0.0 
2857.24 728.961 -612.357 160.325 -75.307 158.781 -0.906351 0.20197 0.971403 -0.905837 0.139751 0.982284 -0.903005 -0.0854141 0.988492 -0.904362 0.0717638 0.989576 -3.98617 4.45359 0.15621 -3.96601 8.02153 0.866788 -0.0 0.0 -0.0 -2.67302 16.2691 -2.29189 -15.1705 -20.9314 76.6991 0.197709 -5.59381 0.00965895 -31.2721 -2.07433 3.36601 -0.579212 7.87255 -0.478441 -0.0 0.0 -0.0 3.54957 16.0237 -5.67075 18.7351 11.4514 -79.2922 1.90016 43.2631 -0.753597 10.2957 -0.247409 1.29014 0.801786 -10.712 -9.58899 0.0 0.0 0.0 13.693 12.9932 -9.98499 -37.9747 -0.342975 5.71266 25.1339 26.2898 -3.55204 -0.753709 0.0 0.0 -0.0 0.0 -0.0 8.11884 25.6107 -7.75467 -14.0031 -0.318866 -2.11996 38.6136 19.6664 5.2126 25.201 -0.0 -0.0 0.0 0.0 0.0 
2863.23 729.812 -614.25 160.505 -76.2774 159.262 -0.90321 0.15149 1.01313 -0.902643 0.0867177 1.02072 -0.90066 -0.145717 1.01398 -0.902095 0.0162419 1.02427 -3.0502 4.62744 0.117364 -3.02189 8.32084 0.795316 -0.0 0.0 -0.0 -2.60425 16.3904 -2.16106 -15.7739 -21.2279 76.5454 0.239177 -6.75715 0.01412 -31.721 -2.11676 3.40492 -0.566102 8.04859 -0.318252 -0.0 0.0 -0.0 3.63226 14.8415 -5.94894 18.3343 11.194 -78.931 2.12207 46.4244 -0.910141 10.5168 -0.250164 1.31826 0.850946 -9.70612 -9.52755 0.0 0.0 0.0 15.1063 13.2223 -9.99755 -33.6327 -0.11213 5.08691 25.5333 25.2223 -3.57868 -0.803705 0.0 0.0 -0.0 0.0 -0.0 7.69437 25.944 -7.81381 -12.9539 -0.313035 -1.95908 38.1623 20.2569 5.19508 24.9497 -0.0 -0.0 0.0 0.0 0.0 
2868.97 728.739 -615.889 158.969 -77.4064 157.741 -0.813956 -0.127305 0.949214 -0.813475 -0.187446 0.93919 -0.816349 -0.393175 0.873291 -0.817326 -0.250326 0.924421 -3.00193 4.22147 -0.329242 -2.97404 7.92802 0.268944 -0.0 0.0 -0.0 -2.58061 16.4978 -2.10418 -16.0656 -20.9757 76.5717 0.199168 -5.63481 0.00980164 -31.4452 -2.09065 3.38105 -0.515085 8.22612 0.0874824 -0.0 0.0 -0.0 3.73428 14.4481 -6.19849 19.0777 11.3423 -78.8246 2.14671 46.7545 -0.928043 10.5786 -0.250915 1.32612 0.878891 -9.07711 -9.47066 0.0 0.0 0.0 15.3496 14.5157 -10.0613 -31.9568 -0.0358468 4.84109 26.1182 25.5985 -3.65869 -0.805544 0.0 0.0 -0.0 0.0 -0.0 7.84432 26.2742 -7.68186 -14.3824 -0.320249 -2.17814 38.4633 20.7699 5.2458 24.9493 -0.0 -0.0 0.0 0.0 0.0 
2875.86 730.966 -615.608 163.168 -76.3005 162.046 -0.85944 0.0100074 1.00054 -0.858884 -0.0536768 0.999152 -0.859489 -0.276958 0.961502 -0.860759 -0.121639 0.993172 -3.12939 4.13399 -0.740529 -3.09843 8.09376 -0.16357 -0.0 0.0 -0.0 -2.53813 16.8021 -1.98204 -16.7088 -20.8 76.6202 0.198237 -5.60865 0.00971039 -32.1356 -2.15622 3.44056 -0.200669 8.30194 2.15247 -0.0 0.0 -0.0 3.08034 12.9574 -4.94508 19.2128 12.7998 -79.9831 2.32667 49.0471 -1.06159 11.2591 -0.258617 1.41269 1.25803 -9.09346 -11.9666 0.0 0.0 0.0 14.6152 15.7228 -9.58276 -29.0173 0.0804505 4.40502 25.6751 26.0312 -3.61363 -1.5343 0.0 0.0 -0.0 0.0 -0.0 8.12075 26.4272 -7.93883 -13.8457 -0.318179 -2.09581 38.4008 20.8996 5.24563 25.0398 -0.0 -0.0 0.0 0.0 0.0 
2879.34 733.163 -615.838 166.116 -76.7797 165.369 -0.762827 -0.134451 0.82589 -0.762467 -0.18673 0.815662 -0.764994 -0.36411 0.753394 -0.765705 -0.24056 0.801439 -3.01035 4.55904 -1.09337 -2.96727 9.13675 -0.477458 -0.0 0.0 -0.0 -2.58617 16.4074 -2.12947 -15.7642 -20.5496 77.3674 0.202298 -5.7228 0.0101113 -31.4051 -2.08687 3.37757 -0.138536 8.46323 2.62106 -0.0 0.0 -0.0 3.29949 12.2792 -5.46323 17.4531 12.4851 -79.2369 2.44963 50.501 -1.15548 11.2737 -0.258771 1.41455 1.23836 -7.41524 -11.2075 0.0 0.0 0.0 15.2902 13.7472 -9.71811 -28.5311 0.0975197 4.33235 25.6558 25.8278 -3.60676 -2.12699 0.0 0.0 -0.0 0.0 -0.0 7.49206 26.273 -7.78913 -10.1573 -0.283115 -1.53108 38.328 22.001 5.28898 24.9099 -0.0 -0.0 0.0 0.0 0.0 
2886.73 733.684 -620.099 168.901 -77.3497 168.684 -0.694076 -0.267828 0.6536 -0.693892 -0.308875 0.635234 -0.697325 -0.442241 0.550773 -0.697578 -0.349709 0.613702 -2.49902 4.44548 -1.05921 -2.45399 8.88563 -0.495302 -0.0 0.0 -0.0 -2.41154 16.244 -1.88367 -15.4444 -20.4866 78.4418 0.20344 -5.75487 0.0102254 -31.2277 -2.07014 3.36214 -0.103581 9.01618 3.07449 -0.0 0.0 -0.0 2.73105 11.586 -4.33313 15.7472 12.2694 -79.0594 2.80191 54.2183 -1.43459 10.9696 -0.255466 1.37585 1.2549 -6.99477 -11.1579 0.0 0.0 0.0 15.3849 14.2901 -9.65273 -27.2278 0.140226 4.13689 26.1511 25.8783 -3.66892 -2.19383 0.0 0.0 -0.0 0.0 -0.0 8.23852 26.7792 -8.27662 -10.3387 -0.285689 -1.5588 38.2667 22.0518 5.28551 24.8701 -0.0 -0.0 0.0 0.0 0.0 
2892.76 734.6 -621.131 171.64 -77.2815 171.754 -0.603796 -0.301566 0.505054 -0.603715 -0.333093 0.484842 -0.606585 -0.431818 0.399445 -0.606624 -0.363314 0.462629 -2.07371 4.37772 -1.72599 -2.01267 9.27475 -1.23676 -0.0 0.0 -0.0 -2.03452 16.0865 -1.31567 -15.1226 -20.2742 78.5001 0.187118 -5.29592 0.00865392 -31.2979 -2.07676 3.36826 -0.0477387 10.1628 3.90227 -0.0 0.0 -0.0 2.65971 10.8763 -4.24704 13.9709 12.7305 -78.9129 3.00427 56.0898 -1.60069 11.0042 -0.255852 1.38025 1.35595 -6.85787 -11.7787 0.0 0.0 0.0 15.3315 14.3999 -10.1323 -26.9499 0.148754 4.09511 26.2228 24.8322 -3.65503 -1.47848 0.0 0.0 -0.0 0.0 -0.0 8.20679 26.3789 -8.25541 -8.90236 -0.262904 -1.33957 37.8386 22.7595 5.27809 24.7603 -0.0 -0.0 0.0 0.0 0.0 
2899.48 736.578 -624.321 174.14 -77.5218 174.979 -0.434263 -0.347328 0.27485 -0.434295 -0.364114 0.252191 -0.43597 -0.410269 0.166908 -0.435808 -0.37876 0.229608 -1.62187 4.30473 -1.96879 -1.55213 9.32387 -1.53831 -0.0 0.0 -0.0 -1.85146 15.8243 -1.06935 -14.7415 -20.0519 78.3045 0.180592 -5.11221 0.00806201 -31.0902 -2.05722 3.35015 0.155154 9.79171 5.05635 -0.0 0.0 -0.0 2.31033 10.3058 -3.57241 11.9798 13.1619 -78.3685 3.00238 56.0731 -1.59912 11.015 -0.255973 1.38163 1.38894 -6.2622 -11.7732 0.0 0.0 0.0 15.3642 15.3857 -10.427 -25.8466 0.180614 3.92878 26.2675 25.3818 -3.67224 -1.85767 0.0 0.0 -0.0 0.0 -0.0 8.30518 26.3531 -8.55355 -8.7124 -0.259479 -1.31062 37.8739 23.3099 5.30858 24.7906 -0.0 -0.0 0.0 0.0 0.0 
2908.15 740.567 -626.915 176.905 -77.7108 178.2 -0.381771 -0.316526 0.115528 -0.381821 -0.323235 0.0951525 -0.382404 -0.336174 0.0228464 -0.382254 -0.328347 0.0756526 -2.17549 4.28904 -1.98801 -2.11091 9.32398 -1.51618 -0.0 0.0 -0.0 -1.32931 15.6979 -0.260996 -14.5386 -20.0153 77.4037 0.18877 -5.3424 0.00880713 -31.0621 -2.05459 3.3477 0.175233 10.3323 5.40153 -0.0 0.0 -0.0 1.9218 9.38207 -2.85462 9.25667 13.1714 -77.9927 3.14834 57.32 -1.72111 11.0848 -0.256743 1.39052 1.47435 -5.89155 -12.2044 0.0 0.0 0.0 15.518 16.4947 -10.6952 -24.3959 0.217617 3.70923 26.0998 25.3268 -3.65053 -2.31116 0.0 0.0 -0.0 0.0 -0.0 8.08966 26.6708 -8.85999 -7.21974 -0.229231 -1.08357 37.728 23.6229 5.31006 24.7697 -0.0 -0.0 0.0 0.0 0.0 
2917.17 738.071 -626.283 179.002 -77.7638 -179.516 -0.0479565 -0.354484 -0.103079 -0.0480176 -0.347206 -0.125427 -0.0472622 -0.312929 -0.195856 -0.0471546 -0.339934 -0.143976 -1.91669 4.63773 -1.62193 -1.85143 9.65724 -1.10585 -0.0 0.0 -0.0 -0.900424 15.1711 0.346275 -14.1062 -20.0361 76.3002 0.191365 -5.41539 0.00905033 -31.048 -2.05326 3.34647 0.186234 11.1652 5.80312 -0.0 0.0 -0.0 1.65537 8.94315 -2.34789 7.04468 13.2747 -77.5956 3.1559 57.3823 -1.72748 11.087 -0.256766 1.39078 1.5368 -5.59211 -12.51 0.0 0.0 0.0 15.3402 17.5321 -11.068 -23.2094 0.243739 3.52903 27.187 25.1123 -3.77793 -2.40893 0.0 0.0 -0.0 0.0 -0.0 8.0549 26.8956 -9.0189 -6.76273 -0.218788 -1.01422 37.7034 24.0153 5.3277 24.7809 -0.0 -0.0 0.0 0.0 0.0 
2922.12 738.4 -627.338 -179.092 -77.0721 -177.611 0.315006 -0.328896 -0.243652 0.314984 -0.312726 -0.264087 0.316458 -0.252025 -0.322526 0.316438 -0.299799 -0.278675 -2.05755 4.37084 -1.81331 -1.99446 9.33092 -1.33092 -0.0 0.0 -0.0 -0.709984 14.7729 0.597599 -14.0326 -19.932 75.7154 0.200381 -5.66892 0.00992104 -31.0472 -2.05318 3.34639 0.21272 11.3949 6.0633 -0.0 0.0 -0.0 1.55894 9.08655 -2.13528 4.30194 13.6397 -76.9331 3.12145 57.0964 -1.69851 11.1024 -0.256934 1.39274 1.56749 -5.71704 -12.7639 0.0 0.0 0.0 14.9024 18.4644 -11.2451 -22.7116 0.253587 3.45327 27.1555 24.4595 -3.75997 -2.58203 0.0 0.0 -0.0 0.0 -0.0 7.73795 27.0715 -8.94394 -6.57942 -0.214444 -0.986424 37.8354 24.3101 5.35599 24.7702 -0.0 -0.0 0.0 0.0 0.0 
2931.2 740.596 -628.63 -176.962 -76.9944 -175.055 0.736496 -0.271213 -0.396289 0.73655 -0.245447 -0.412744 0.738375 -0.159073 -0.453097 0.738161 -0.228634 -0.422289 -3.72158 5.53886 0.721456 -3.69128 9.55582 1.6018 -0.0 0.0 -0.0 -0.453691 14.4456 0.968216 -13.1595 -19.9157 74.8843 0.23741 -6.70768 0.0139128 -31.2043 -2.06794 3.3601 0.119853 13.3502 6.24362 -0.0 0.0 -0.0 1.53373 8.56009 -2.13549 0.183302 13.5601 -76.4082 2.96716 55.7596 -1.56994 10.3101 -0.247591 1.29197 1.5872 -5.27501 -12.7288 0.0 0.0 0.0 14.5684 19.8581 -11.4576 -21.165 0.279974 3.21742 29.2931 23.6049 -3.99353 -3.27416 0.0 0.0 -0.0 0.0 -0.0 7.573 26.8624 -9.0662 -5.80943 -0.195225 -0.869823 36.968 24.5985 5.28494 24.7691 -0.0 -0.0 0.0 0.0 0.0 
2938.07 739.034 -625.737 -173.714 -77.8715 -172.009 1.16187 -0.292775 -0.455171 1.16195 -0.263219 -0.472878 1.16418 -0.168444 -0.514319 1.16389 -0.247556 -0.481262 -4.9063 5.34331 0.819862 -4.88789 9.20254 1.75298 -0.0 0.0 -0.0 -0.262317 13.6642 1.18207 -12.3852 -20.3793 73.6317 0.265221 -7.48498 0.0173486 -31.1996 -2.0675 3.35969 0.00617563 14.8923 6.13666 -0.0 0.0 -0.0 1.8723 7.11409 -2.96661 -2.0442 13.1232 -76.2009 2.91031 55.2427 -1.52309 9.9136 -0.242394 1.2416 1.49545 -4.55916 -11.8367 0.0 0.0 0.0 14.5156 21.1876 -11.5425 -19.6412 0.299735 2.98446 30.7261 22.3616 -4.13026 -3.84149 0.0 0.0 -0.0 0.0 -0.0 7.22037 26.6416 -8.98117 -5.29105 -0.181403 -0.791469 37.9398 24.8853 5.39685 24.5856 -0.0 -0.0 0.0 0.0 0.0 
2943.74 740.148 -625.588 -170.212 -78.0602 -168.388 1.55699 -0.284399 -0.620973 1.55717 -0.244309 -0.63781 1.55995 -0.123145 -0.671805 1.55939 -0.227696 -0.643928 -5.31577 6.16213 2.40315 -5.29019 9.55647 3.5329 -0.0 0.0 -0.0 0.0173367 13.1104 1.57547 -10.9361 -20.737 72.9659 0.304396 -8.57514 0.0228213 -31.3077 -2.07768 3.36911 -0.0664788 15.9817 6.11404 -0.0 0.0 -0.0 2.16036 7.10074 -3.55403 -5.97875 12.9853 -75.1656 2.58995 52.0573 -1.26497 9.72845 -0.239847 1.21809 1.47513 -4.75334 -11.7746 0.0 0.0 0.0 14.4655 22.1979 -11.8609 -18.4777 0.310649 2.80628 29.9765 22.0547 -4.03947 -4.26519 0.0 0.0 -0.0 0.0 -0.0 7.1315 26.6385 -8.95238 -5.03351 -0.174272 -0.752589 37.8194 25.1242 5.39798 24.6319 -0.0 -0.0 0.0 0.0 0.0 
